<?xml version="1.0" encoding="utf-8"?>
<!-- Generator: Adobe Illustrator 22.1.0, SVG Export Plug-In . SVG Version: 6.00 Build 0)  -->
<svg version="1.1" id="Capa_1" xmlns="http://www.w3.org/2000/svg" xmlns:xlink="http://www.w3.org/1999/xlink" x="0px" y="0px"
	 viewBox="0 0 1200 695.6" style="enable-background:new 0 0 1200 695.6;" xml:space="preserve">
<style type="text/css">
	.st0{fill:#080100;}
	.st1{fill:#FFFFFF;}
</style>
<g id="XMLID_5_">
	<g id="XMLID_115_">
		<rect id="XMLID_122_" x="157.5" y="368.5" class="st0" width="223.2" height="44.5"/>
		<g id="XMLID_117_">
			
				<rect id="XMLID_121_" x="124" y="462.9" transform="matrix(8.978780e-11 -1 1 8.978780e-11 -305.3542 664.8737)" class="st0" width="111.6" height="44.5"/>
			
				<rect id="XMLID_120_" x="183.5" y="462.9" transform="matrix(8.961726e-11 -1 1 8.961726e-11 -245.7699 724.4579)" class="st0" width="111.6" height="44.5"/>
			
				<rect id="XMLID_119_" x="302.7" y="462.9" transform="matrix(8.953555e-11 -1 1 8.953555e-11 -126.6012 843.6266)" class="st0" width="111.6" height="44.5"/>
			
				<rect id="XMLID_118_" x="243.1" y="462.9" transform="matrix(8.970697e-11 -1 1 8.970697e-11 -186.1855 784.0423)" class="st0" width="111.6" height="44.5"/>
		</g>
		<polygon id="XMLID_116_" class="st0" points="276.7,193 276.7,237.5 276.7,317.4 261.6,317.4 261.6,237.5 261.6,193 157.5,193 
			157.5,200.2 157.5,237.5 157.5,352.2 202,352.2 202,311.4 202,311.4 202,237.5 217.1,237.5 217.1,311.4 217.1,352.2 321.2,352.2 
			321.2,237.5 336.3,237.5 336.3,352.2 340.7,352.2 380.8,352.2 380.8,237.5 380.8,227.8 380.8,193 		"/>
	</g>
	<g id="XMLID_110_">
		<path id="XMLID_111_" class="st0" d="M469.1,345.8l12.7,13.5l6.9-7.6l5.9,5.3l-7.3,8.1l12.8,13.6h-10.9L482,371
			c-6.9,6.6-13.5,9.9-20.1,9.9c-5.6,0-10.5-1.7-14.5-5.2c-4.1-3.5-6.1-7.6-6.1-12.4c0-3.6,0.9-6.5,2.7-8.8c1.8-2.3,6-5.7,12.5-10.2
			c-0.6-0.9-1.1-1.6-1.5-2.2c-2.8-3.6-4.5-6.2-5-7.9c-0.5-1.7-0.8-3.2-0.8-4.5c0-3.5,1.4-6.8,4.3-9.7c2.8-2.9,6.6-4.4,11.4-4.4
			c4.1,0,7.7,1.4,10.6,4.2c2.9,2.8,4.4,6.2,4.4,10.2C479.7,335.8,476.2,341,469.1,345.8z M476.5,365.1l-14.3-15.2
			c-5.4,3.5-8.8,6.1-10.3,7.9c-1.4,1.8-2.2,3.5-2.2,5.3c0,2.7,1.2,5,3.6,6.9c2.4,1.9,5.2,2.9,8.6,2.9c2.5,0,4.9-0.6,7.1-1.9
			C471.1,369.8,473.6,367.8,476.5,365.1z M463.5,339.9c2.8-1.9,4.9-3.6,6.3-5.1c1.4-1.5,2.1-3.1,2.1-4.8c0-1.9-0.7-3.5-2-4.7
			c-1.3-1.2-3.1-1.8-5.4-1.8c-2.1,0-3.8,0.6-5.2,1.7c-1.4,1.1-2,2.6-2,4.4C457.3,332.2,459.4,335.6,463.5,339.9z"/>
	</g>
	<g id="XMLID_25_">
		<g id="XMLID_26_">
			<path id="XMLID_43_" class="st0" d="M487.2,486.1l6.3,17.1h8.8l-19.5-51.3h-8.8l-19.5,51.3h8.8l6.3-17.1H487.2z M478.5,461.6
				l5.9,17.3h-11.7L478.5,461.6z"/>
			<path id="XMLID_42_" class="st0" d="M546.3,504.2c-2.3,0-4.5-0.3-6.4-1c-2-0.7-3.7-1.6-5.2-2.8c-1.5-1.2-2.8-2.6-3.8-4.1
				c-1-1.6-1.7-3.3-2.1-5.2l7.2-2.9c0.4,1.4,1,2.7,1.7,3.8c0.7,1.1,1.6,2,2.5,2.7c0.9,0.7,1.9,1.3,3,1.6c1,0.4,2,0.5,3,0.5
				c2.9,0,5-0.7,6.5-2.1c1.5-1.4,2.2-3.3,2.2-5.5c0-1.6-0.6-3-1.8-4c-1.2-1-2.6-2-4.4-2.8c-1.8-0.8-3.7-1.7-5.8-2.5
				c-2-0.8-4-1.9-5.8-3.1c-1.8-1.2-3.3-2.7-4.4-4.5c-1.2-1.8-1.8-4.1-1.8-6.9c0-1.8,0.4-3.6,1.2-5.3c0.8-1.7,1.9-3.2,3.4-4.5
				c1.4-1.3,3.1-2.3,5.1-3.1s4.1-1.2,6.4-1.2c4.7,0,8.4,1.3,11.2,3.8c2.8,2.5,4.5,5.7,5.3,9.4l-7.2,2.9c-0.7-2.9-2-5-3.8-6.4
				c-1.8-1.4-3.6-2.1-5.5-2.1c-1,0-1.9,0.2-2.8,0.5c-0.9,0.4-1.7,0.8-2.3,1.5c-0.7,0.6-1.2,1.3-1.6,2.1s-0.6,1.6-0.6,2.4
				c0,1.8,0.6,3.3,1.8,4.3c1.2,1.1,2.6,2,4.4,2.8c1.8,0.8,3.7,1.6,5.8,2.4c2,0.8,4,1.8,5.8,2.9c1.8,1.2,3.3,2.7,4.4,4.4
				c1.2,1.8,1.8,4.1,1.8,7c0,1.9-0.4,3.8-1.2,5.7c-0.8,1.8-2,3.4-3.5,4.8c-1.5,1.4-3.4,2.5-5.5,3.4
				C551.4,503.8,549,504.2,546.3,504.2z"/>
			<path id="XMLID_39_" class="st0" d="M614.9,504.2c4.1,0,7.7-0.6,10.8-1.9c3.1-1.3,5.7-3.1,7.7-5.4c2.1-2.3,3.6-5.2,4.7-8.5
				c1-3.3,1.6-7.1,1.6-11.3c0-4.1-0.6-7.8-1.7-11c-1.1-3.2-2.8-5.9-4.9-8.1c-2.1-2.2-4.7-3.9-7.7-5.1c-3.1-1.2-6.5-1.8-10.3-1.8
				c-7.9,0-14,2.3-18.3,6.8c-4.3,4.5-6.5,11-6.5,19.5c0,8.3,2.1,14.9,6.3,19.7C600.7,501.8,606.8,504.2,614.9,504.2z M600.1,469.8
				c0.6-2.3,1.6-4.3,3-6c1.3-1.7,3-2.9,5-3.9c2-0.9,4.4-1.4,7-1.4c2.6,0,4.9,0.5,6.8,1.4c2,0.9,3.6,2.2,4.9,3.9c1.3,1.7,2.3,3.6,3,6
				c0.7,2.3,1,4.8,1,7.5c0,2.7-0.3,5.3-1,7.6c-0.7,2.3-1.6,4.4-2.9,6.1c-1.3,1.8-3,3.1-5,4.1c-2,1-4.4,1.5-7.1,1.5
				c-2.6,0-4.9-0.5-6.8-1.5c-2-1-3.6-2.4-4.9-4.1c-1.3-1.8-2.3-3.8-3-6.1c-0.7-2.3-1-4.8-1-7.5C599.1,474.7,599.5,472.1,600.1,469.8
				z"/>
			<path id="XMLID_38_" class="st0" d="M684.8,504.2c-4,0-7.6-0.7-10.8-1.9c-3.2-1.3-5.9-3.1-8.1-5.5c-2.2-2.3-4-5.2-5.1-8.4
				c-1.2-3.3-1.8-6.9-1.8-10.9s0.6-7.6,1.8-10.8c1.2-3.2,2.9-6,5.1-8.2c2.2-2.2,5-4,8.1-5.2c3.2-1.2,6.8-1.8,10.8-1.8
				c4.9,0,8.9,1.1,12.2,3.2c3.3,2.1,5.9,5.3,7.8,9.5l-7.2,3.4c-1.5-2.7-3.3-4.8-5.3-6.2c-2-1.4-4.5-2.1-7.5-2.1
				c-5.4,0-9.5,1.6-12.3,4.9c-2.8,3.3-4.2,7.6-4.2,12.8c0,2.7,0.4,5.2,1.1,7.5c0.7,2.3,1.8,4.4,3.2,6.1c1.4,1.8,3.1,3.1,5.2,4.1
				c2.1,1,4.5,1.5,7.1,1.5c3,0,5.5-0.7,7.5-2.1c2-1.4,3.8-3.5,5.3-6.2l7.2,3.4c-1.9,4.2-4.6,7.3-7.8,9.5
				C693.7,503.1,689.7,504.2,684.8,504.2z"/>
			<rect id="XMLID_37_" x="747.2" y="452.1" class="st0" width="8.8" height="51.1"/>
			<path id="XMLID_34_" class="st0" d="M824.3,451.9h-8.8L796,503.2h8.8l6.3-17.1h17.6l6.3,17.1h8.8L824.3,451.9z M814.1,478.8
				l5.9-17.3l5.9,17.3H814.1z"/>
			<path id="XMLID_31_" class="st0" d="M906.5,495.3c2.1-2.4,3.8-5.3,5-8.6c1.2-3.3,1.8-6.9,1.8-10.6c0-3.5-0.5-6.7-1.6-9.7
				c-1-3-2.5-5.5-4.4-7.7c-1.9-2.1-4.1-3.8-6.8-5c-2.6-1.2-5.6-1.8-8.8-1.8l-24,0.1v51.1h21.7c3.4,0,6.5-0.7,9.5-2.1
				C901.8,499.6,904.3,497.7,906.5,495.3z M885.9,495.4h-9.4v-36h11.3c5.2,0,9.3,1.5,12.1,4.4c2.8,3,4.3,7.2,4.3,12.8
				c0,2.8-0.4,5.4-1.3,7.7c-0.9,2.3-2.1,4.3-3.7,5.9c-1.6,1.6-3.5,2.9-5.8,3.8C891.1,495,888.6,495.4,885.9,495.4z"/>
			<path id="XMLID_28_" class="st0" d="M956.4,504.2c4.1,0,7.7-0.6,10.8-1.9c3.1-1.3,5.7-3.1,7.7-5.4c2.1-2.3,3.6-5.2,4.7-8.5
				c1-3.3,1.6-7.1,1.6-11.3c0-4.1-0.6-7.8-1.7-11c-1.1-3.2-2.8-5.9-4.9-8.1c-2.1-2.2-4.7-3.9-7.7-5.1c-3.1-1.2-6.5-1.8-10.3-1.8
				c-7.9,0-14,2.3-18.3,6.8c-4.3,4.5-6.5,11-6.5,19.5c0,8.3,2.1,14.9,6.3,19.7C942.2,501.8,948.3,504.2,956.4,504.2z M941.6,469.8
				c0.6-2.3,1.6-4.3,3-6c1.3-1.7,3-2.9,5-3.9c2-0.9,4.4-1.4,7-1.4c2.6,0,4.9,0.5,6.8,1.4c2,0.9,3.6,2.2,4.9,3.9c1.3,1.7,2.3,3.6,3,6
				c0.7,2.3,1,4.8,1,7.5c0,2.7-0.3,5.3-1,7.6c-0.7,2.3-1.6,4.4-2.9,6.1c-1.3,1.8-3,3.1-5,4.1c-2,1-4.4,1.5-7.1,1.5
				c-2.6,0-4.9-0.5-6.8-1.5c-2-1-3.6-2.4-4.9-4.1c-1.3-1.8-2.3-3.8-3-6.1c-0.7-2.3-1-4.8-1-7.5C940.6,474.7,940.9,472.1,941.6,469.8
				z"/>
			<path id="XMLID_27_" class="st0" d="M1024.3,504.2c-2.3,0-4.5-0.3-6.4-1c-2-0.7-3.7-1.6-5.2-2.8c-1.5-1.2-2.8-2.6-3.8-4.1
				c-1-1.6-1.7-3.3-2.1-5.2l7.2-2.9c0.4,1.4,1,2.7,1.7,3.8c0.7,1.1,1.6,2,2.5,2.7c0.9,0.7,1.9,1.3,3,1.6c1,0.4,2,0.5,3,0.5
				c2.9,0,5-0.7,6.5-2.1c1.5-1.4,2.2-3.3,2.2-5.5c0-1.6-0.6-3-1.8-4c-1.2-1-2.6-2-4.4-2.8c-1.8-0.8-3.7-1.7-5.8-2.5
				c-2-0.8-4-1.9-5.8-3.1c-1.8-1.2-3.3-2.7-4.4-4.5c-1.2-1.8-1.8-4.1-1.8-6.9c0-1.8,0.4-3.6,1.2-5.3c0.8-1.7,1.9-3.2,3.4-4.5
				c1.4-1.3,3.1-2.3,5.1-3.1c1.9-0.8,4.1-1.2,6.4-1.2c4.7,0,8.4,1.3,11.2,3.8c2.8,2.5,4.5,5.7,5.3,9.4l-7.2,2.9
				c-0.7-2.9-2-5-3.8-6.4c-1.8-1.4-3.6-2.1-5.5-2.1c-1,0-1.9,0.2-2.8,0.5c-0.9,0.4-1.7,0.8-2.3,1.5c-0.7,0.6-1.2,1.3-1.6,2.1
				c-0.4,0.8-0.6,1.6-0.6,2.4c0,1.8,0.6,3.3,1.8,4.3c1.2,1.1,2.6,2,4.4,2.8c1.8,0.8,3.7,1.6,5.8,2.4c2,0.8,4,1.8,5.8,2.9
				c1.8,1.2,3.3,2.7,4.4,4.4c1.2,1.8,1.8,4.1,1.8,7c0,1.9-0.4,3.8-1.2,5.7c-0.8,1.8-2,3.4-3.5,4.8c-1.5,1.4-3.4,2.5-5.5,3.4
				C1029.5,503.8,1027,504.2,1024.3,504.2z"/>
		</g>
	</g>
	<g id="XMLID_10_">
		<g id="XMLID_11_">
			<polygon id="XMLID_24_" class="st0" points="451.1,192.8 465.9,229.7 480.6,192.8 490.5,192.8 490.5,244.5 481.4,244.5 
				481.4,214.4 469.8,244.5 461.9,244.5 450.1,214 450.1,244.5 441.2,244.5 441.2,192.8 			"/>
			<path id="XMLID_21_" class="st0" d="M558,207c-1.1-3.3-2.8-6-4.9-8.2c-2.1-2.2-4.7-3.9-7.8-5.1c-3.1-1.2-6.6-1.8-10.4-1.8
				c-7.9,0-14.1,2.3-18.5,6.8c-4.4,4.6-6.6,11.1-6.6,19.7c0,8.4,2.1,15,6.4,19.9c4.3,4.8,10.5,7.2,18.6,7.2c4.1,0,7.8-0.6,10.9-1.9
				c3.1-1.3,5.7-3.1,7.8-5.5s3.7-5.2,4.7-8.6c1-3.4,1.6-7.2,1.6-11.4C559.7,214,559.1,210.3,558,207z M549.8,226.1
				c-0.7,2.4-1.6,4.4-3,6.2c-1.3,1.8-3,3.2-5,4.1s-4.4,1.5-7.2,1.5c-2.6,0-4.9-0.5-6.9-1.5c-2-1-3.6-2.4-5-4.2
				c-1.3-1.8-2.4-3.8-3-6.2c-0.7-2.3-1-4.8-1-7.5c0-2.8,0.3-5.4,1-7.7c0.7-2.3,1.7-4.3,3-6c1.3-1.7,3-3,5.1-3.9
				c2-0.9,4.4-1.4,7.1-1.4c2.6,0,4.9,0.5,6.9,1.4c2,1,3.6,2.3,4.9,3.9c1.3,1.7,2.3,3.7,3,6c0.7,2.3,1,4.8,1,7.5
				C550.8,221.2,550.5,223.7,549.8,226.1z"/>
			<path id="XMLID_18_" class="st0" d="M625.7,238.6c-1-2.1-2-4.2-3.1-6.3c-1.1-2.1-2.4-4.1-3.8-6.1c-1.5-2-3.4-3.8-5.8-5.3
				c2.8-1.2,5-3,6.6-5.2c1.6-2.2,2.4-4.9,2.4-8.2c0-2.6-0.5-4.8-1.4-6.6c-0.9-1.8-2.2-3.4-3.7-4.6c-1.5-1.2-3.3-2.1-5.3-2.7
				c-2-0.6-4.1-0.8-6.4-0.8h-18.1v51.7h8.9v-20.7h4.6c2.6,0,4.7,0.8,6.4,2.3c1.7,1.5,3.2,3.4,4.4,5.6c1.3,2.2,2.5,4.5,3.5,6.8
				c1.1,2.4,2.3,4.3,3.7,5.9h10.8C627.9,242.7,626.7,240.7,625.7,238.6z M610.1,214c-1.5,1.5-3.4,2.2-5.7,2.2h-8.5v-15.6h9.3
				c2.3,0,4.1,0.6,5.3,1.9c1.2,1.2,1.9,3.1,1.9,5.6C612.4,210.5,611.6,212.5,610.1,214z"/>
			<path id="XMLID_15_" class="st0" d="M677.3,192.7h-8.9l-19.7,51.8h8.9l6.4-17.2h17.7l6.4,17.2h8.9L677.3,192.7z M666.9,219.9
				l5.9-17.4l5.9,17.4H666.9z"/>
			<polygon id="XMLID_14_" class="st0" points="738.4,192.9 738.4,236.7 761.1,236.7 761.1,244.5 729.5,244.5 729.5,192.9 			"/>
			<polygon id="XMLID_13_" class="st0" points="828.2,193 828.2,200.6 805.7,200.6 805.7,212.6 823.9,212.6 823.9,220 805.6,220 
				805.6,236.7 828.2,236.7 828.2,244.5 796.5,244.5 796.5,193 			"/>
			<path id="XMLID_12_" class="st0" d="M879.3,245.5c-2.4,0-4.5-0.3-6.5-1c-2-0.7-3.7-1.6-5.2-2.8c-1.5-1.2-2.8-2.6-3.8-4.2
				c-1-1.6-1.7-3.4-2.1-5.3l7.3-3c0.4,1.4,1,2.7,1.7,3.8c0.8,1.1,1.6,2,2.6,2.7c1,0.7,2,1.3,3,1.6c1,0.4,2.1,0.5,3.1,0.5
				c2.9,0,5.1-0.7,6.6-2.2c1.5-1.4,2.3-3.3,2.3-5.5c0-1.6-0.6-3-1.8-4c-1.2-1-2.7-2-4.5-2.9c-1.8-0.9-3.7-1.7-5.8-2.6
				c-2.1-0.9-4-1.9-5.8-3.2c-1.8-1.2-3.3-2.8-4.5-4.6c-1.2-1.8-1.8-4.1-1.8-6.9c0-1.8,0.4-3.6,1.2-5.3c0.8-1.7,2-3.2,3.4-4.5
				c1.4-1.3,3.2-2.4,5.1-3.2c2-0.8,4.1-1.2,6.5-1.2c4.7,0,8.5,1.3,11.3,3.8c2.8,2.6,4.6,5.7,5.4,9.5l-7.3,3c-0.7-2.9-2-5.1-3.8-6.5
				c-1.8-1.4-3.7-2.2-5.6-2.2c-1,0-1.9,0.2-2.8,0.5c-0.9,0.4-1.7,0.9-2.4,1.5s-1.2,1.3-1.6,2.1c-0.4,0.8-0.6,1.6-0.6,2.5
				c0,1.8,0.6,3.3,1.8,4.4c1.2,1.1,2.7,2,4.5,2.9c1.8,0.8,3.7,1.6,5.8,2.4s4,1.8,5.8,3c1.8,1.2,3.3,2.7,4.5,4.5
				c1.2,1.8,1.8,4.2,1.8,7c0,2-0.4,3.9-1.2,5.7c-0.8,1.8-2,3.5-3.5,4.9c-1.5,1.4-3.4,2.5-5.6,3.4
				C884.5,245.1,882.1,245.5,879.3,245.5z"/>
		</g>
	</g>
	<rect id="XMLID_9_" x="441.2" y="154.7" class="st0" width="623.5" height="7.7"/>
	<rect id="XMLID_8_" x="441.2" y="274.7" class="st0" width="623.5" height="8.1"/>
	<rect id="XMLID_7_" x="441.2" y="414.5" class="st0" width="623.5" height="6"/>
	<rect id="XMLID_6_" x="441.2" y="534.6" class="st0" width="623.5" height="6.3"/>
	<path id="XMLID_99_" class="st0" d="M403.6,162.5v-7.7H135.3v7.7c10.2,0,22.2,8.3,22.2,18.5h223.2
		C380.8,170.7,393.4,162.5,403.6,162.5z"/>
</g>
</svg>
